<svg width="86" height="87" viewBox="0 0 86 87" fill="none" xmlns="http://www.w3.org/2000/svg">
<rect width="86" height="87" fill="white"/>
<path d="M43 86.8649C66.7482 86.8649 86 67.6434 86 43.9325C86 20.2215 66.7482 1 43 1C19.2518 1 0 20.2215 0 43.9325C0 67.6434 19.2518 86.8649 43 86.8649Z" fill="black"/>
<path d="M56.2538 27.7593C55.4727 27.7593 54.7236 28.0691 54.1712 28.6205C53.6189 29.172 53.3086 29.9199 53.3086 30.6998C53.3749 31.4575 53.7066 32.1675 54.2452 32.7053C54.7838 33.2431 55.495 33.5742 56.2538 33.6404C57.0644 33.6438 57.8467 33.3436 58.4465 32.7992C59.0462 32.2548 59.4198 31.5058 59.4935 30.6998C59.4956 30.2876 59.4108 29.8796 59.2448 29.5022C59.0787 29.1248 58.835 28.7865 58.5295 28.5092C58.224 28.232 57.8636 28.0219 57.4715 27.8927C57.0795 27.7635 56.6646 27.718 56.2538 27.7593Z" fill="white"/>
<path d="M43.2954 31.582C40.8489 31.582 38.4573 32.3064 36.4231 33.6635C34.3889 35.0205 32.8034 36.9494 31.8671 39.2062C30.9309 41.4629 30.6859 43.9462 31.1632 46.3419C31.6405 48.7377 32.8186 50.9383 34.5486 52.6655C36.2785 54.3928 38.4826 55.569 40.8822 56.0456C43.2817 56.5221 45.7689 56.2775 48.0291 55.3428C50.2894 54.408 52.2214 52.825 53.5806 50.794C54.9398 48.763 55.6653 46.3751 55.6653 43.9325C55.6653 40.6569 54.362 37.5155 52.0422 35.1994C49.7224 32.8832 46.5761 31.582 43.2954 31.582V31.582ZM43.2954 51.872C41.7226 51.872 40.1852 51.4064 38.8775 50.534C37.5698 49.6616 36.5505 48.4216 35.9487 46.9708C35.3468 45.52 35.1893 43.9237 35.4961 42.3835C35.803 40.8434 36.5603 39.4287 37.6725 38.3183C38.7846 37.208 40.2015 36.4518 41.744 36.1455C43.2866 35.8391 44.8855 35.9963 46.3385 36.5973C47.7916 37.1982 49.0335 38.2158 49.9073 39.5215C50.7811 40.8271 51.2475 42.3622 51.2475 43.9325C51.2475 46.0382 50.4097 48.0576 48.9184 49.5466C47.4271 51.0355 45.4044 51.872 43.2954 51.872Z" fill="white"/>
<path d="M53.0141 69.2215H32.9867C28.9249 69.2215 25.0294 67.6104 22.1573 64.7428C19.2852 61.8752 17.6716 57.9859 17.6716 53.9304V33.9345C17.6716 29.8791 19.2852 25.9897 22.1573 23.1221C25.0294 20.2545 28.9249 18.6435 32.9867 18.6435H53.0141C57.0759 18.6435 60.9713 20.2545 63.8435 23.1221C66.7156 25.9897 68.3292 29.8791 68.3292 33.9345V53.9304C68.3292 57.9859 66.7156 61.8752 63.8435 64.7428C60.9713 67.6104 57.0759 69.2215 53.0141 69.2215V69.2215ZM32.9867 23.3484C31.6079 23.3479 30.2429 23.6235 28.9727 24.159C27.7024 24.6945 26.5527 25.479 25.5916 26.4661C24.6304 27.4532 23.8773 28.6227 23.377 29.9056C22.8766 31.1884 22.6391 32.5584 22.6785 33.9345V53.9304C22.6377 55.293 22.8765 56.6496 23.3801 57.9167C23.8837 59.1838 24.6415 60.3347 25.607 61.2986C26.5724 62.2625 27.7251 63.0192 28.9942 63.522C30.2633 64.0248 31.622 64.2632 32.9867 64.2225H53.0141C54.3924 64.2618 55.7645 64.0247 57.0494 63.5251C58.3342 63.0255 59.5056 62.2736 60.4943 61.314C61.4829 60.3543 62.2686 59.2064 62.805 57.9382C63.3413 56.6699 63.6174 55.3071 63.6168 53.9304V33.9345C63.6168 32.5443 63.3426 31.1677 62.8097 29.8834C62.2769 28.599 61.4959 27.432 60.5114 26.449C59.5268 25.466 58.358 24.6862 57.0716 24.1542C55.7852 23.6222 54.4065 23.3484 53.0141 23.3484H32.9867Z" fill="white"/>
</svg>
