<svg width="86" height="86" viewBox="0 0 86 86" fill="none" xmlns="http://www.w3.org/2000/svg">
<g clip-path="url(#clip0)">
<rect width="86" height="86" fill="white"/>
<path d="M43.2293 86.3617C67.0508 86.3617 86.3403 67.029 86.3136 43.1808C86.2869 19.3327 66.9541 0 43.1326 0C19.3111 0 0.0216386 19.3327 0.0483311 43.1808C0.0750236 67.029 19.4078 86.3617 43.2293 86.3617Z" fill="black"/>
<path fill-rule="evenodd" clip-rule="evenodd" d="M42.3138 51.9372C49.5989 51.9372 55.5047 46.0183 55.5047 38.7169C55.5047 31.4156 49.5989 25.4967 42.3138 25.4967C35.0286 25.4967 29.1229 31.4156 29.1229 38.7169C29.1229 46.0183 35.0286 51.9372 42.3138 51.9372ZM42.3138 59.4916C53.7619 59.4916 63.0424 50.1905 63.0424 38.7169C63.0424 27.2434 53.7619 17.9423 42.3138 17.9423C30.8657 17.9423 21.5852 27.2434 21.5852 38.7169C21.5852 50.1905 30.8657 59.4916 42.3138 59.4916Z" fill="white"/>
<path fill-rule="evenodd" clip-rule="evenodd" d="M51.4264 52.0992C52.8982 50.6241 55.2845 50.6241 56.7563 52.0992L69.005 64.3752C70.4768 65.8503 70.4768 68.2419 69.005 69.717C67.5332 71.1921 65.1469 71.1921 63.6751 69.717L51.4264 57.441C49.9546 55.9659 49.9546 53.5743 51.4264 52.0992Z" fill="white"/>
</g>
<defs>
<clipPath id="clip0">
<rect width="86" height="86" fill="white"/>
</clipPath>
</defs>
</svg>
